<svg width="22" height="22" viewBox="0 0 22 22" fill="none" xmlns="http://www.w3.org/2000/svg">
<path d="M17.4053 1.84375L20.1553 4.59375L18.0589 6.69108L15.3089 3.94108L17.4053 1.84375ZM7.33301 14.6661H10.083L16.7628 7.98633L14.0128 5.23633L7.33301 11.9161V14.6661Z" fill="#144776"/>
<path d="M17.4167 17.4167H7.47817C7.45433 17.4167 7.42958 17.4258 7.40575 17.4258C7.3755 17.4258 7.34525 17.4176 7.31408 17.4167H4.58333V4.58333H10.8598L12.6931 2.75H4.58333C3.57225 2.75 2.75 3.57133 2.75 4.58333V17.4167C2.75 18.4287 3.57225 19.25 4.58333 19.25H17.4167C17.9029 19.25 18.3692 19.0568 18.713 18.713C19.0568 18.3692 19.25 17.9029 19.25 17.4167V9.471L17.4167 11.3043V17.4167Z" fill="#144776"/>
</svg>
