<svg width="26" height="26" viewBox="0 0 26 26" fill="none" xmlns="http://www.w3.org/2000/svg">
<path d="M25.9999 12.5185C25.9999 15.8386 24.681 19.0228 22.3333 21.3704C19.9857 23.7181 16.8015 25.037 13.4814 25.037C10.1613 25.037 6.97716 23.7181 4.62948 21.3704C2.2818 19.0228 0.962891 15.8386 0.962891 12.5185C0.962891 9.1984 2.2818 6.01427 4.62948 3.66659C6.97716 1.31891 10.1613 0 13.4814 0C16.8015 0 19.9857 1.31891 22.3333 3.66659C24.681 6.01427 25.9999 9.1984 25.9999 12.5185ZM13.9305 9.2418C12.712 9.7488 10.2782 10.7972 6.62908 12.3871C6.03758 12.6218 5.72723 12.8523 5.69802 13.0787C5.65108 13.459 6.12834 13.6092 6.77774 13.8142L7.05158 13.9002C7.69003 14.1084 8.55068 14.3509 8.99665 14.3603C9.4035 14.3707 9.85625 14.2038 10.3549 13.8596C13.7652 11.5582 15.5251 10.3951 15.6346 10.37C15.7128 10.3512 15.8224 10.3293 15.8944 10.3951C15.9663 10.4608 15.9601 10.5828 15.9523 10.6157C15.9053 10.8176 14.0322 12.5576 13.0636 13.459C12.7616 13.7406 12.5472 13.9394 12.5034 13.9847C12.4069 14.0834 12.3089 14.1804 12.2092 14.2758C11.6146 14.8485 11.1702 15.2773 12.2327 15.9783C12.7444 16.3163 13.1544 16.5933 13.5628 16.8718C14.0072 17.1754 14.4516 17.4774 15.0274 17.8561C15.1735 17.9521 15.3143 18.0496 15.4499 18.1487C15.9679 18.518 16.4358 18.8498 17.0101 18.7966C17.3449 18.7653 17.6908 18.4523 17.866 17.5134C18.2807 15.2961 19.096 10.4936 19.2837 8.51416C19.2955 8.34961 19.2887 8.18426 19.2634 8.02124C19.2482 7.88981 19.1846 7.76875 19.085 7.68167C18.9424 7.58377 18.7728 7.53289 18.5999 7.53615C18.1305 7.54397 17.406 7.79591 13.9305 9.2418Z" fill="white"/>
</svg>
